<?xml version="1.0" encoding="UTF-8"?>
<svg xmlns="http://www.w3.org/2000/svg" xmlns:xlink="http://www.w3.org/1999/xlink" width="1152" height="648" viewBox="0 0 1152 648">
<defs>
<clipPath id="clip-0">
<path clip-rule="nonzero" d="M 5.480469 5.480469 L 1146.523438 5.480469 L 1146.523438 642.523438 L 5.480469 642.523438 Z M 5.480469 5.480469 "/>
</clipPath>
</defs>
<rect x="-115.2" y="-64.8" width="1382.4" height="777.6" fill="rgb(100%, 100%, 100%)" fill-opacity="1"/>
<rect x="-115.2" y="-64.8" width="1382.4" height="777.6" fill="rgb(100%, 100%, 100%)" fill-opacity="1"/>
<path fill="none" stroke-width="1.066978" stroke-linecap="round" stroke-linejoin="round" stroke="rgb(0%, 0%, 0%)" stroke-opacity="1" stroke-miterlimit="10" d="M 0 648 L 1152 648 L 1152 0 L 0 0 Z M 0 648 "/>
<g clip-path="url(#clip-0)">
<path fill-rule="nonzero" fill="rgb(100%, 100%, 100%)" fill-opacity="1" stroke-width="1.066978" stroke-linecap="round" stroke-linejoin="round" stroke="rgb(0%, 0%, 0%)" stroke-opacity="1" stroke-miterlimit="10" d="M 5.480469 642.519531 L 1146.523438 642.519531 L 1146.523438 5.476562 L 5.480469 5.476562 Z M 5.480469 642.519531 "/>
</g>
<path fill="none" stroke-width="1.266129" stroke-linecap="butt" stroke-linejoin="round" stroke="rgb(0%, 0%, 0%)" stroke-opacity="1" stroke-miterlimit="10" d="M 57.34375 346.210938 L 143.789062 360.132812 L 230.230469 256.519531 L 316.671875 163.570312 L 403.113281 175.257812 L 489.558594 108.042969 L 576 103.089844 L 662.441406 108.042969 L 748.886719 175.257812 L 835.328125 163.570312 L 921.769531 256.519531 L 1008.210938 360.132812 L 1094.65625 346.210938 "/>
<path fill="none" stroke-width="1.259685" stroke-linecap="butt" stroke-linejoin="round" stroke="rgb(0%, 0%, 0%)" stroke-opacity="1" stroke-miterlimit="10" d="M 57.34375 346.210938 L 143.789062 354.40625 L 230.230469 381.152344 L 316.671875 440.449219 L 403.113281 458.59375 L 489.558594 454.289062 L 576 456.089844 L 662.441406 454.289062 L 748.886719 458.59375 L 835.328125 440.449219 L 921.769531 381.152344 L 1008.210938 354.40625 L 1094.65625 346.210938 "/>
<path fill="none" stroke-width="2.021178" stroke-linecap="butt" stroke-linejoin="round" stroke="rgb(0%, 0%, 0%)" stroke-opacity="1" stroke-miterlimit="10" d="M 57.34375 346.210938 L 143.789062 327.167969 L 230.230469 367.464844 L 316.671875 401.957031 L 403.113281 386.917969 L 489.558594 311.886719 L 576 295.972656 L 662.441406 311.886719 L 748.886719 386.917969 L 835.328125 401.957031 L 921.769531 367.464844 L 1008.210938 327.167969 L 1094.65625 346.210938 "/>
<path fill="none" stroke-width="1.225764" stroke-linecap="butt" stroke-linejoin="round" stroke="rgb(0%, 0%, 0%)" stroke-opacity="1" stroke-miterlimit="10" d="M 57.34375 346.210938 L 143.789062 262.855469 L 230.230469 197.578125 L 316.671875 175.761719 L 403.113281 252.085938 L 489.558594 263.832031 L 576 243.527344 L 662.441406 263.832031 L 748.886719 252.085938 L 835.328125 175.761719 L 921.769531 197.578125 L 1008.210938 262.855469 L 1094.65625 346.210938 "/>
<path fill="none" stroke-width="2.521428" stroke-linecap="butt" stroke-linejoin="round" stroke="rgb(0%, 0%, 0%)" stroke-opacity="1" stroke-miterlimit="10" d="M 57.34375 346.210938 L 143.789062 433.925781 L 230.230469 375.707031 L 316.671875 430.167969 L 403.113281 485.140625 L 489.558594 538.355469 L 576 542.890625 L 662.441406 538.355469 L 748.886719 485.140625 L 835.328125 430.167969 L 921.769531 375.707031 L 1008.210938 433.925781 L 1094.65625 346.210938 "/>
<path fill="none" stroke-width="1.349049" stroke-linecap="butt" stroke-linejoin="round" stroke="rgb(0%, 0%, 0%)" stroke-opacity="1" stroke-miterlimit="10" d="M 57.34375 346.210938 L 143.789062 324.1875 L 230.230469 322.152344 L 316.671875 405.085938 L 403.113281 494.804688 L 489.558594 538.796875 L 576 561.199219 L 662.441406 538.796875 L 748.886719 494.804688 L 835.328125 405.085938 L 921.769531 322.152344 L 1008.210938 324.1875 L 1094.65625 346.210938 "/>
<path fill="none" stroke-width="1.692207" stroke-linecap="butt" stroke-linejoin="round" stroke="rgb(0%, 0%, 0%)" stroke-opacity="1" stroke-miterlimit="10" d="M 57.34375 346.210938 L 143.789062 366.140625 L 230.230469 386.347656 L 316.671875 379.359375 L 403.113281 367.804688 L 489.558594 345.976562 L 576 362.164062 L 662.441406 345.976562 L 748.886719 367.804688 L 835.328125 379.359375 L 921.769531 386.347656 L 1008.210938 366.140625 L 1094.65625 346.210938 "/>
<path fill="none" stroke-width="1.114158" stroke-linecap="butt" stroke-linejoin="round" stroke="rgb(0%, 0%, 0%)" stroke-opacity="1" stroke-miterlimit="10" d="M 57.34375 346.210938 L 143.789062 313.625 L 230.230469 231.984375 L 316.671875 189.335938 L 403.113281 248.066406 L 489.558594 175.335938 L 576 265.007812 L 662.441406 175.335938 L 748.886719 248.066406 L 835.328125 189.335938 L 921.769531 231.984375 L 1008.210938 313.625 L 1094.65625 346.210938 "/>
<path fill="none" stroke-width="1.686892" stroke-linecap="butt" stroke-linejoin="round" stroke="rgb(0%, 0%, 0%)" stroke-opacity="1" stroke-miterlimit="10" d="M 57.34375 346.210938 L 143.789062 340.398438 L 230.230469 342.570312 L 316.671875 385.164062 L 403.113281 440.675781 L 489.558594 440.847656 L 576 454.789062 L 662.441406 440.847656 L 748.886719 440.675781 L 835.328125 385.164062 L 921.769531 342.570312 L 1008.210938 340.398438 L 1094.65625 346.210938 "/>
<path fill="none" stroke-width="1.632011" stroke-linecap="butt" stroke-linejoin="round" stroke="rgb(0%, 0%, 0%)" stroke-opacity="1" stroke-miterlimit="10" d="M 57.34375 346.210938 L 143.789062 385.898438 L 230.230469 338.746094 L 316.671875 304.578125 L 403.113281 328.738281 L 489.558594 391.292969 L 576 487.425781 L 662.441406 391.292969 L 748.886719 328.738281 L 835.328125 304.578125 L 921.769531 338.746094 L 1008.210938 385.898438 L 1094.65625 346.210938 "/>
<path fill="none" stroke-width="1.244827" stroke-linecap="butt" stroke-linejoin="round" stroke="rgb(0%, 0%, 0%)" stroke-opacity="1" stroke-miterlimit="10" d="M 57.34375 346.210938 L 143.789062 307.191406 L 230.230469 209.125 L 316.671875 220.535156 L 403.113281 157.972656 L 489.558594 202.832031 L 576 196.917969 L 662.441406 202.832031 L 748.886719 157.972656 L 835.328125 220.535156 L 921.769531 209.125 L 1008.210938 307.191406 L 1094.65625 346.210938 "/>
<path fill="none" stroke-width="1.225039" stroke-linecap="butt" stroke-linejoin="round" stroke="rgb(0%, 0%, 0%)" stroke-opacity="1" stroke-miterlimit="10" d="M 57.34375 346.210938 L 143.789062 360.496094 L 230.230469 367.828125 L 316.671875 333.671875 L 403.113281 388.722656 L 489.558594 456.75 L 576 400.75 L 662.441406 456.75 L 748.886719 388.722656 L 835.328125 333.671875 L 921.769531 367.828125 L 1008.210938 360.496094 L 1094.65625 346.210938 "/>
<path fill="none" stroke-width="2.617313" stroke-linecap="butt" stroke-linejoin="round" stroke="rgb(0%, 0%, 0%)" stroke-opacity="1" stroke-miterlimit="10" d="M 57.34375 346.210938 L 143.789062 287.003906 L 230.230469 326.597656 L 316.671875 357.480469 L 403.113281 331.046875 L 489.558594 366.851562 L 576 271.746094 L 662.441406 366.851562 L 748.886719 331.046875 L 835.328125 357.480469 L 921.769531 326.597656 L 1008.210938 287.003906 L 1094.65625 346.210938 "/>
<path fill="none" stroke-width="1.198824" stroke-linecap="butt" stroke-linejoin="round" stroke="rgb(0%, 0%, 0%)" stroke-opacity="1" stroke-miterlimit="10" d="M 57.34375 346.210938 L 143.789062 302.660156 L 230.230469 209.285156 L 316.671875 220.121094 L 403.113281 288.71875 L 489.558594 328.914062 L 576 338.792969 L 662.441406 328.914062 L 748.886719 288.71875 L 835.328125 220.121094 L 921.769531 209.285156 L 1008.210938 302.660156 L 1094.65625 346.210938 "/>
<path fill="none" stroke-width="1.529887" stroke-linecap="butt" stroke-linejoin="round" stroke="rgb(0%, 0%, 0%)" stroke-opacity="1" stroke-miterlimit="10" d="M 57.34375 346.210938 L 143.789062 346.910156 L 230.230469 338.054688 L 316.671875 375.515625 L 403.113281 438.609375 L 489.558594 349.097656 L 576 321.65625 L 662.441406 349.097656 L 748.886719 438.609375 L 835.328125 375.515625 L 921.769531 338.054688 L 1008.210938 346.910156 L 1094.65625 346.210938 "/>
<path fill="none" stroke-width="1.416317" stroke-linecap="butt" stroke-linejoin="round" stroke="rgb(0%, 0%, 0%)" stroke-opacity="1" stroke-miterlimit="10" d="M 57.34375 346.210938 L 143.789062 321.925781 L 230.230469 300.8125 L 316.671875 311.457031 L 403.113281 286.21875 L 489.558594 287.71875 L 576 273.027344 L 662.441406 287.71875 L 748.886719 286.21875 L 835.328125 311.457031 L 921.769531 300.8125 L 1008.210938 321.925781 L 1094.65625 346.210938 "/>
<path fill="none" stroke-width="1.537478" stroke-linecap="butt" stroke-linejoin="round" stroke="rgb(0%, 0%, 0%)" stroke-opacity="1" stroke-miterlimit="10" d="M 57.34375 346.210938 L 143.789062 341.199219 L 230.230469 320.964844 L 316.671875 309.808594 L 403.113281 308.3125 L 489.558594 297.898438 L 576 204.414062 L 662.441406 297.898438 L 748.886719 308.3125 L 835.328125 309.808594 L 921.769531 320.964844 L 1008.210938 341.199219 L 1094.65625 346.210938 "/>
<path fill="none" stroke-width="1.14831" stroke-linecap="butt" stroke-linejoin="round" stroke="rgb(0%, 0%, 0%)" stroke-opacity="1" stroke-miterlimit="10" d="M 57.34375 346.210938 L 143.789062 359.027344 L 230.230469 324.238281 L 316.671875 315.976562 L 403.113281 307.808594 L 489.558594 382.886719 L 576 377.972656 L 662.441406 382.886719 L 748.886719 307.808594 L 835.328125 315.976562 L 921.769531 324.238281 L 1008.210938 359.027344 L 1094.65625 346.210938 "/>
<path fill="none" stroke-width="1.940867" stroke-linecap="butt" stroke-linejoin="round" stroke="rgb(0%, 0%, 0%)" stroke-opacity="1" stroke-miterlimit="10" d="M 57.34375 346.210938 L 143.789062 415.328125 L 230.230469 424.808594 L 316.671875 431.246094 L 403.113281 443.121094 L 489.558594 517.5625 L 576 532.316406 L 662.441406 517.5625 L 748.886719 443.121094 L 835.328125 431.246094 L 921.769531 424.808594 L 1008.210938 415.328125 L 1094.65625 346.210938 "/>
<path fill="none" stroke-width="1.735725" stroke-linecap="butt" stroke-linejoin="round" stroke="rgb(0%, 0%, 0%)" stroke-opacity="1" stroke-miterlimit="10" d="M 57.34375 346.210938 L 143.789062 389.21875 L 230.230469 364.226562 L 316.671875 382.867188 L 403.113281 311.648438 L 489.558594 268.695312 L 576 277.570312 L 662.441406 268.695312 L 748.886719 311.648438 L 835.328125 382.867188 L 921.769531 364.226562 L 1008.210938 389.21875 L 1094.65625 346.210938 "/>
<path fill="none" stroke-width="1.949342" stroke-linecap="butt" stroke-linejoin="round" stroke="rgb(0%, 0%, 0%)" stroke-opacity="1" stroke-miterlimit="10" d="M 57.34375 346.210938 L 143.789062 433.859375 L 230.230469 394.871094 L 316.671875 512.039062 L 403.113281 525.597656 L 489.558594 481.316406 L 576 490.9375 L 662.441406 481.316406 L 748.886719 525.597656 L 835.328125 512.039062 L 921.769531 394.871094 L 1008.210938 433.859375 L 1094.65625 346.210938 "/>
<path fill="none" stroke-width="1.310215" stroke-linecap="butt" stroke-linejoin="round" stroke="rgb(0%, 0%, 0%)" stroke-opacity="1" stroke-miterlimit="10" d="M 57.34375 346.210938 L 143.789062 372.476562 L 230.230469 500.480469 L 316.671875 453.003906 L 403.113281 488.238281 L 489.558594 544.089844 L 576 612.667969 L 662.441406 544.089844 L 748.886719 488.238281 L 835.328125 453.003906 L 921.769531 500.480469 L 1008.210938 372.476562 L 1094.65625 346.210938 "/>
<path fill="none" stroke-width="1.291154" stroke-linecap="butt" stroke-linejoin="round" stroke="rgb(0%, 0%, 0%)" stroke-opacity="1" stroke-miterlimit="10" d="M 57.34375 346.210938 L 143.789062 319.617188 L 230.230469 351.488281 L 316.671875 370.367188 L 403.113281 428.066406 L 489.558594 345.574219 L 576 310.339844 L 662.441406 345.574219 L 748.886719 428.066406 L 835.328125 370.367188 L 921.769531 351.488281 L 1008.210938 319.617188 L 1094.65625 346.210938 "/>
<path fill="none" stroke-width="2.230099" stroke-linecap="butt" stroke-linejoin="round" stroke="rgb(0%, 0%, 0%)" stroke-opacity="1" stroke-miterlimit="10" d="M 57.34375 346.210938 L 143.789062 332.421875 L 230.230469 284.035156 L 316.671875 286.296875 L 403.113281 353.109375 L 489.558594 306.25 L 576 197.113281 L 662.441406 306.25 L 748.886719 353.109375 L 835.328125 286.296875 L 921.769531 284.035156 L 1008.210938 332.421875 L 1094.65625 346.210938 "/>
<path fill="none" stroke-width="0.86803" stroke-linecap="butt" stroke-linejoin="round" stroke="rgb(0%, 0%, 0%)" stroke-opacity="1" stroke-miterlimit="10" d="M 57.34375 346.210938 L 143.789062 266.71875 L 230.230469 263.394531 L 316.671875 263.429688 L 403.113281 271.339844 L 489.558594 237.402344 L 576 256.878906 L 662.441406 237.402344 L 748.886719 271.339844 L 835.328125 263.429688 L 921.769531 263.394531 L 1008.210938 266.71875 L 1094.65625 346.210938 "/>
<path fill="none" stroke-width="2.318146" stroke-linecap="butt" stroke-linejoin="round" stroke="rgb(0%, 0%, 0%)" stroke-opacity="1" stroke-miterlimit="10" d="M 57.34375 346.210938 L 143.789062 304.507812 L 230.230469 309.582031 L 316.671875 358.8125 L 403.113281 415.949219 L 489.558594 510.355469 L 576 574.304688 L 662.441406 510.355469 L 748.886719 415.949219 L 835.328125 358.8125 L 921.769531 309.582031 L 1008.210938 304.507812 L 1094.65625 346.210938 "/>
<path fill="none" stroke-width="2.131856" stroke-linecap="butt" stroke-linejoin="round" stroke="rgb(0%, 0%, 0%)" stroke-opacity="1" stroke-miterlimit="10" d="M 57.34375 346.210938 L 143.789062 373.734375 L 230.230469 460.082031 L 316.671875 456.710938 L 403.113281 464.589844 L 489.558594 456.105469 L 576 516.070312 L 662.441406 456.105469 L 748.886719 464.589844 L 835.328125 456.710938 L 921.769531 460.082031 L 1008.210938 373.734375 L 1094.65625 346.210938 "/>
<path fill="none" stroke-width="2.448508" stroke-linecap="butt" stroke-linejoin="round" stroke="rgb(0%, 0%, 0%)" stroke-opacity="1" stroke-miterlimit="10" d="M 57.34375 346.210938 L 143.789062 320.242188 L 230.230469 281.53125 L 316.671875 243.277344 L 403.113281 255.488281 L 489.558594 231.453125 L 576 219.210938 L 662.441406 231.453125 L 748.886719 255.488281 L 835.328125 243.277344 L 921.769531 281.53125 L 1008.210938 320.242188 L 1094.65625 346.210938 "/>
<path fill="none" stroke-width="2.607315" stroke-linecap="butt" stroke-linejoin="round" stroke="rgb(0%, 0%, 0%)" stroke-opacity="1" stroke-miterlimit="10" d="M 57.34375 346.210938 L 143.789062 340.164062 L 230.230469 254.515625 L 316.671875 234.382812 L 403.113281 195.402344 L 489.558594 209.007812 L 576 255.226562 L 662.441406 209.007812 L 748.886719 195.402344 L 835.328125 234.382812 L 921.769531 254.515625 L 1008.210938 340.164062 L 1094.65625 346.210938 "/>
<path fill="none" stroke-width="1.042383" stroke-linecap="butt" stroke-linejoin="round" stroke="rgb(0%, 0%, 0%)" stroke-opacity="1" stroke-miterlimit="10" d="M 57.34375 346.210938 L 143.789062 418.175781 L 230.230469 432.011719 L 316.671875 397.664062 L 403.113281 399.25 L 489.558594 389.46875 L 576 435.867188 L 662.441406 389.46875 L 748.886719 399.25 L 835.328125 397.664062 L 921.769531 432.011719 L 1008.210938 418.175781 L 1094.65625 346.210938 "/>
<path fill="none" stroke-width="1.592931" stroke-linecap="butt" stroke-linejoin="round" stroke="rgb(0%, 0%, 0%)" stroke-opacity="1" stroke-miterlimit="10" d="M 57.34375 346.210938 L 143.789062 349.339844 L 230.230469 328.804688 L 316.671875 365.585938 L 403.113281 326.511719 L 489.558594 325.289062 L 576 279.535156 L 662.441406 325.289062 L 748.886719 326.511719 L 835.328125 365.585938 L 921.769531 328.804688 L 1008.210938 349.339844 L 1094.65625 346.210938 "/>
<path fill="none" stroke-width="1.911563" stroke-linecap="butt" stroke-linejoin="round" stroke="rgb(0%, 0%, 0%)" stroke-opacity="1" stroke-miterlimit="10" d="M 57.34375 346.210938 L 143.789062 357.597656 L 230.230469 534.96875 L 316.671875 455.597656 L 403.113281 380.484375 L 489.558594 355.535156 L 576 374.304688 L 662.441406 355.535156 L 748.886719 380.484375 L 835.328125 455.597656 L 921.769531 534.96875 L 1008.210938 357.597656 L 1094.65625 346.210938 "/>
<path fill="none" stroke-width="1.550126" stroke-linecap="butt" stroke-linejoin="round" stroke="rgb(0%, 0%, 0%)" stroke-opacity="1" stroke-miterlimit="10" d="M 57.34375 346.210938 L 143.789062 379.144531 L 230.230469 402.640625 L 316.671875 334.140625 L 403.113281 303.917969 L 489.558594 304.441406 L 576 391.167969 L 662.441406 304.441406 L 748.886719 303.917969 L 835.328125 334.140625 L 921.769531 402.640625 L 1008.210938 379.144531 L 1094.65625 346.210938 "/>
<path fill="none" stroke-width="2.498637" stroke-linecap="butt" stroke-linejoin="round" stroke="rgb(0%, 0%, 0%)" stroke-opacity="1" stroke-miterlimit="10" d="M 57.34375 346.210938 L 143.789062 390.402344 L 230.230469 331.847656 L 316.671875 224.996094 L 403.113281 137.832031 L 489.558594 150.195312 L 576 276.382812 L 662.441406 150.195312 L 748.886719 137.832031 L 835.328125 224.996094 L 921.769531 331.847656 L 1008.210938 390.402344 L 1094.65625 346.210938 "/>
<path fill="none" stroke-width="1.634397" stroke-linecap="butt" stroke-linejoin="round" stroke="rgb(0%, 0%, 0%)" stroke-opacity="1" stroke-miterlimit="10" d="M 57.34375 346.210938 L 143.789062 314.429688 L 230.230469 358.230469 L 316.671875 391.328125 L 403.113281 438.410156 L 489.558594 470.035156 L 576 489.390625 L 662.441406 470.035156 L 748.886719 438.410156 L 835.328125 391.328125 L 921.769531 358.230469 L 1008.210938 314.429688 L 1094.65625 346.210938 "/>
<path fill="none" stroke-width="1.157701" stroke-linecap="butt" stroke-linejoin="round" stroke="rgb(0%, 0%, 0%)" stroke-opacity="1" stroke-miterlimit="10" d="M 57.34375 346.210938 L 143.789062 317.375 L 230.230469 350.550781 L 316.671875 268.902344 L 403.113281 209.566406 L 489.558594 206.808594 L 576 249.691406 L 662.441406 206.808594 L 748.886719 209.566406 L 835.328125 268.902344 L 921.769531 350.550781 L 1008.210938 317.375 L 1094.65625 346.210938 "/>
<path fill="none" stroke-width="1.130362" stroke-linecap="butt" stroke-linejoin="round" stroke="rgb(0%, 0%, 0%)" stroke-opacity="1" stroke-miterlimit="10" d="M 57.34375 346.210938 L 143.789062 348.542969 L 230.230469 318.148438 L 316.671875 264.34375 L 403.113281 256.125 L 489.558594 404.757812 L 576 324.101562 L 662.441406 404.757812 L 748.886719 256.125 L 835.328125 264.34375 L 921.769531 318.148438 L 1008.210938 348.542969 L 1094.65625 346.210938 "/>
<path fill="none" stroke-width="1.898442" stroke-linecap="butt" stroke-linejoin="round" stroke="rgb(0%, 0%, 0%)" stroke-opacity="1" stroke-miterlimit="10" d="M 57.34375 346.210938 L 143.789062 384.285156 L 230.230469 312.109375 L 316.671875 208.644531 L 403.113281 152.683594 L 489.558594 138.539062 L 576 155.363281 L 662.441406 138.539062 L 748.886719 152.683594 L 835.328125 208.644531 L 921.769531 312.109375 L 1008.210938 384.285156 L 1094.65625 346.210938 "/>
<path fill="none" stroke-width="1.238362" stroke-linecap="butt" stroke-linejoin="round" stroke="rgb(0%, 0%, 0%)" stroke-opacity="1" stroke-miterlimit="10" d="M 57.34375 346.210938 L 143.789062 307.371094 L 230.230469 345.882812 L 316.671875 328.554688 L 403.113281 279.09375 L 489.558594 233.359375 L 576 230.328125 L 662.441406 233.359375 L 748.886719 279.09375 L 835.328125 328.554688 L 921.769531 345.882812 L 1008.210938 307.371094 L 1094.65625 346.210938 "/>
<path fill="none" stroke-width="1.0802" stroke-linecap="butt" stroke-linejoin="round" stroke="rgb(0%, 0%, 0%)" stroke-opacity="1" stroke-miterlimit="10" d="M 57.34375 346.210938 L 143.789062 395.863281 L 230.230469 395.679688 L 316.671875 424.742188 L 403.113281 371.988281 L 489.558594 345.613281 L 576 336.242188 L 662.441406 345.613281 L 748.886719 371.988281 L 835.328125 424.742188 L 921.769531 395.679688 L 1008.210938 395.863281 L 1094.65625 346.210938 "/>
<path fill="none" stroke-width="0.900496" stroke-linecap="butt" stroke-linejoin="round" stroke="rgb(0%, 0%, 0%)" stroke-opacity="1" stroke-miterlimit="10" d="M 57.34375 346.210938 L 143.789062 374.878906 L 230.230469 394.351562 L 316.671875 325.414062 L 403.113281 286.1875 L 489.558594 311.222656 L 576 411.90625 L 662.441406 311.222656 L 748.886719 286.1875 L 835.328125 325.414062 L 921.769531 394.351562 L 1008.210938 374.878906 L 1094.65625 346.210938 "/>
<path fill="none" stroke-width="2.544837" stroke-linecap="butt" stroke-linejoin="round" stroke="rgb(0%, 0%, 0%)" stroke-opacity="1" stroke-miterlimit="10" d="M 57.34375 346.210938 L 143.789062 359.3125 L 230.230469 285.078125 L 316.671875 374.804688 L 403.113281 352.359375 L 489.558594 350.746094 L 576 371.808594 L 662.441406 350.746094 L 748.886719 352.359375 L 835.328125 374.804688 L 921.769531 285.078125 L 1008.210938 359.3125 L 1094.65625 346.210938 "/>
<path fill="none" stroke-width="0.987128" stroke-linecap="butt" stroke-linejoin="round" stroke="rgb(0%, 0%, 0%)" stroke-opacity="1" stroke-miterlimit="10" d="M 57.34375 346.210938 L 143.789062 392.625 L 230.230469 388.011719 L 316.671875 405.414062 L 403.113281 331.734375 L 489.558594 284.632812 L 576 324.078125 L 662.441406 284.632812 L 748.886719 331.734375 L 835.328125 405.414062 L 921.769531 388.011719 L 1008.210938 392.625 L 1094.65625 346.210938 "/>
<path fill="none" stroke-width="2.627728" stroke-linecap="butt" stroke-linejoin="round" stroke="rgb(0%, 0%, 0%)" stroke-opacity="1" stroke-miterlimit="10" d="M 57.34375 346.210938 L 143.789062 382.6875 L 230.230469 312.910156 L 316.671875 327.851562 L 403.113281 274.875 L 489.558594 219.484375 L 576 231.925781 L 662.441406 219.484375 L 748.886719 274.875 L 835.328125 327.851562 L 921.769531 312.910156 L 1008.210938 382.6875 L 1094.65625 346.210938 "/>
<path fill="none" stroke-width="2.420201" stroke-linecap="butt" stroke-linejoin="round" stroke="rgb(0%, 0%, 0%)" stroke-opacity="1" stroke-miterlimit="10" d="M 57.34375 346.210938 L 143.789062 273.433594 L 230.230469 289.957031 L 316.671875 366.683594 L 403.113281 333.941406 L 489.558594 384.460938 L 576 365.488281 L 662.441406 384.460938 L 748.886719 333.941406 L 835.328125 366.683594 L 921.769531 289.957031 L 1008.210938 273.433594 L 1094.65625 346.210938 "/>
<path fill="none" stroke-width="1.528206" stroke-linecap="butt" stroke-linejoin="round" stroke="rgb(0%, 0%, 0%)" stroke-opacity="1" stroke-miterlimit="10" d="M 57.34375 346.210938 L 143.789062 299.703125 L 230.230469 290.089844 L 316.671875 240.425781 L 403.113281 267.277344 L 489.558594 273.242188 L 576 206.488281 L 662.441406 273.242188 L 748.886719 267.277344 L 835.328125 240.425781 L 921.769531 290.089844 L 1008.210938 299.703125 L 1094.65625 346.210938 "/>
<path fill="none" stroke-width="2.004875" stroke-linecap="butt" stroke-linejoin="round" stroke="rgb(0%, 0%, 0%)" stroke-opacity="1" stroke-miterlimit="10" d="M 57.34375 346.210938 L 143.789062 323.539062 L 230.230469 261.5 L 316.671875 226.480469 L 403.113281 194.21875 L 489.558594 117.832031 L 576 34.4375 L 662.441406 117.832031 L 748.886719 194.21875 L 835.328125 226.480469 L 921.769531 261.5 L 1008.210938 323.539062 L 1094.65625 346.210938 "/>
<path fill="none" stroke-width="2.577959" stroke-linecap="butt" stroke-linejoin="round" stroke="rgb(0%, 0%, 0%)" stroke-opacity="1" stroke-miterlimit="10" d="M 57.34375 346.210938 L 143.789062 282.601562 L 230.230469 293.800781 L 316.671875 402.714844 L 403.113281 408.605469 L 489.558594 428.039062 L 576 358.972656 L 662.441406 428.039062 L 748.886719 408.605469 L 835.328125 402.714844 L 921.769531 293.800781 L 1008.210938 282.601562 L 1094.65625 346.210938 "/>
<path fill="none" stroke-width="1.225572" stroke-linecap="butt" stroke-linejoin="round" stroke="rgb(0%, 0%, 0%)" stroke-opacity="1" stroke-miterlimit="10" d="M 57.34375 346.210938 L 143.789062 300.425781 L 230.230469 187.167969 L 316.671875 222.808594 L 403.113281 267.949219 L 489.558594 313.554688 L 576 256.558594 L 662.441406 313.554688 L 748.886719 267.949219 L 835.328125 222.808594 L 921.769531 187.167969 L 1008.210938 300.425781 L 1094.65625 346.210938 "/>
<path fill="none" stroke-width="2.074801" stroke-linecap="butt" stroke-linejoin="round" stroke="rgb(0%, 0%, 0%)" stroke-opacity="1" stroke-miterlimit="10" d="M 57.34375 346.210938 L 143.789062 338.617188 L 230.230469 346.972656 L 316.671875 309.964844 L 403.113281 462.789062 L 489.558594 455.585938 L 576 489.871094 L 662.441406 455.585938 L 748.886719 462.789062 L 835.328125 309.964844 L 921.769531 346.972656 L 1008.210938 338.617188 L 1094.65625 346.210938 "/>
<path fill="none" stroke-width="1.466487" stroke-linecap="butt" stroke-linejoin="round" stroke="rgb(0%, 0%, 0%)" stroke-opacity="1" stroke-miterlimit="10" d="M 57.34375 346.210938 L 143.789062 287.3125 L 230.230469 262.585938 L 316.671875 336.007812 L 403.113281 371.253906 L 489.558594 465.328125 L 576 539.859375 L 662.441406 465.328125 L 748.886719 371.253906 L 835.328125 336.007812 L 921.769531 262.585938 L 1008.210938 287.3125 L 1094.65625 346.210938 "/>
<path fill="none" stroke-width="0.894407" stroke-linecap="butt" stroke-linejoin="round" stroke="rgb(0%, 0%, 0%)" stroke-opacity="1" stroke-miterlimit="10" d="M 57.34375 346.210938 L 143.789062 279.90625 L 230.230469 373.007812 L 316.671875 425.507812 L 403.113281 427.714844 L 489.558594 443.476562 L 576 445.699219 L 662.441406 443.476562 L 748.886719 427.714844 L 835.328125 425.507812 L 921.769531 373.007812 L 1008.210938 279.90625 L 1094.65625 346.210938 "/>
<path fill="none" stroke-width="2.121287" stroke-linecap="butt" stroke-linejoin="round" stroke="rgb(0%, 0%, 0%)" stroke-opacity="1" stroke-miterlimit="10" d="M 57.34375 346.210938 L 143.789062 312.191406 L 230.230469 309.882812 L 316.671875 336.003906 L 403.113281 360.792969 L 489.558594 392.839844 L 576 390.625 L 662.441406 392.839844 L 748.886719 360.792969 L 835.328125 336.003906 L 921.769531 309.882812 L 1008.210938 312.191406 L 1094.65625 346.210938 "/>
<path fill="none" stroke-width="1.350018" stroke-linecap="butt" stroke-linejoin="round" stroke="rgb(0%, 0%, 0%)" stroke-opacity="1" stroke-miterlimit="10" d="M 57.34375 346.210938 L 143.789062 367.09375 L 230.230469 500.339844 L 316.671875 452.273438 L 403.113281 485.390625 L 489.558594 507.398438 L 576 613.5625 L 662.441406 507.398438 L 748.886719 485.390625 L 835.328125 452.273438 L 921.769531 500.339844 L 1008.210938 367.09375 L 1094.65625 346.210938 "/>
<path fill="none" stroke-width="1.48678" stroke-linecap="butt" stroke-linejoin="round" stroke="rgb(0%, 0%, 0%)" stroke-opacity="1" stroke-miterlimit="10" d="M 57.34375 346.210938 L 143.789062 288.914062 L 230.230469 319.699219 L 316.671875 334.371094 L 403.113281 381.753906 L 489.558594 449.953125 L 576 413.09375 L 662.441406 449.953125 L 748.886719 381.753906 L 835.328125 334.371094 L 921.769531 319.699219 L 1008.210938 288.914062 L 1094.65625 346.210938 "/>
<path fill="none" stroke-width="2.293328" stroke-linecap="butt" stroke-linejoin="round" stroke="rgb(0%, 0%, 0%)" stroke-opacity="1" stroke-miterlimit="10" d="M 57.34375 346.210938 L 143.789062 388.972656 L 230.230469 331.847656 L 316.671875 437.792969 L 403.113281 446.96875 L 489.558594 466.707031 L 576 500.65625 L 662.441406 466.707031 L 748.886719 446.96875 L 835.328125 437.792969 L 921.769531 331.847656 L 1008.210938 388.972656 L 1094.65625 346.210938 "/>
<path fill="none" stroke-width="1.837583" stroke-linecap="butt" stroke-linejoin="round" stroke="rgb(0%, 0%, 0%)" stroke-opacity="1" stroke-miterlimit="10" d="M 57.34375 346.210938 L 143.789062 216.207031 L 230.230469 196.308594 L 316.671875 245.597656 L 403.113281 290.460938 L 489.558594 280.023438 L 576 250.9375 L 662.441406 280.023438 L 748.886719 290.460938 L 835.328125 245.597656 L 921.769531 196.308594 L 1008.210938 216.207031 L 1094.65625 346.210938 "/>
<path fill="none" stroke-width="2.577568" stroke-linecap="butt" stroke-linejoin="round" stroke="rgb(0%, 0%, 0%)" stroke-opacity="1" stroke-miterlimit="10" d="M 57.34375 346.210938 L 143.789062 335.746094 L 230.230469 349.863281 L 316.671875 429.476562 L 403.113281 481.394531 L 489.558594 513.40625 L 576 468.347656 L 662.441406 513.40625 L 748.886719 481.394531 L 835.328125 429.476562 L 921.769531 349.863281 L 1008.210938 335.746094 L 1094.65625 346.210938 "/>
<path fill="none" stroke-width="2.667345" stroke-linecap="butt" stroke-linejoin="round" stroke="rgb(0%, 0%, 0%)" stroke-opacity="1" stroke-miterlimit="10" d="M 57.34375 346.210938 L 143.789062 311.734375 L 230.230469 351.414062 L 316.671875 413.316406 L 403.113281 445.949219 L 489.558594 444.214844 L 576 456.863281 L 662.441406 444.214844 L 748.886719 445.949219 L 835.328125 413.316406 L 921.769531 351.414062 L 1008.210938 311.734375 L 1094.65625 346.210938 "/>
<path fill="none" stroke-width="0.834261" stroke-linecap="butt" stroke-linejoin="round" stroke="rgb(0%, 0%, 0%)" stroke-opacity="1" stroke-miterlimit="10" d="M 57.34375 346.210938 L 143.789062 390.632812 L 230.230469 390.847656 L 316.671875 363.808594 L 403.113281 364.53125 L 489.558594 324.585938 L 576 277.347656 L 662.441406 324.585938 L 748.886719 364.53125 L 835.328125 363.808594 L 921.769531 390.847656 L 1008.210938 390.632812 L 1094.65625 346.210938 "/>
<path fill="none" stroke-width="1.256109" stroke-linecap="butt" stroke-linejoin="round" stroke="rgb(0%, 0%, 0%)" stroke-opacity="1" stroke-miterlimit="10" d="M 57.34375 346.210938 L 143.789062 297.777344 L 230.230469 291.03125 L 316.671875 295.296875 L 403.113281 203.035156 L 489.558594 240.949219 L 576 247.898438 L 662.441406 240.949219 L 748.886719 203.035156 L 835.328125 295.296875 L 921.769531 291.03125 L 1008.210938 297.777344 L 1094.65625 346.210938 "/>
<path fill="none" stroke-width="1.204331" stroke-linecap="butt" stroke-linejoin="round" stroke="rgb(0%, 0%, 0%)" stroke-opacity="1" stroke-miterlimit="10" d="M 57.34375 346.210938 L 143.789062 301.390625 L 230.230469 327.949219 L 316.671875 373.605469 L 403.113281 423.46875 L 489.558594 386.066406 L 576 431.917969 L 662.441406 386.066406 L 748.886719 423.46875 L 835.328125 373.605469 L 921.769531 327.949219 L 1008.210938 301.390625 L 1094.65625 346.210938 "/>
<path fill="none" stroke-width="1.182997" stroke-linecap="butt" stroke-linejoin="round" stroke="rgb(0%, 0%, 0%)" stroke-opacity="1" stroke-miterlimit="10" d="M 57.34375 346.210938 L 143.789062 346.386719 L 230.230469 334.828125 L 316.671875 385.65625 L 403.113281 352.492188 L 489.558594 416.855469 L 576 460.046875 L 662.441406 416.855469 L 748.886719 352.492188 L 835.328125 385.65625 L 921.769531 334.828125 L 1008.210938 346.386719 L 1094.65625 346.210938 "/>
<path fill="none" stroke-width="1.0224" stroke-linecap="butt" stroke-linejoin="round" stroke="rgb(0%, 0%, 0%)" stroke-opacity="1" stroke-miterlimit="10" d="M 57.34375 346.210938 L 143.789062 337.441406 L 230.230469 305.148438 L 316.671875 248.546875 L 403.113281 249.488281 L 489.558594 223.304688 L 576 304.5 L 662.441406 223.304688 L 748.886719 249.488281 L 835.328125 248.546875 L 921.769531 305.148438 L 1008.210938 337.441406 L 1094.65625 346.210938 "/>
<path fill="none" stroke-width="1.242282" stroke-linecap="butt" stroke-linejoin="round" stroke="rgb(0%, 0%, 0%)" stroke-opacity="1" stroke-miterlimit="10" d="M 57.34375 346.210938 L 143.789062 336.597656 L 230.230469 290.902344 L 316.671875 354.152344 L 403.113281 335.648438 L 489.558594 260.175781 L 576 220.496094 L 662.441406 260.175781 L 748.886719 335.648438 L 835.328125 354.152344 L 921.769531 290.902344 L 1008.210938 336.597656 L 1094.65625 346.210938 "/>
<path fill="none" stroke-width="1.207187" stroke-linecap="butt" stroke-linejoin="round" stroke="rgb(0%, 0%, 0%)" stroke-opacity="1" stroke-miterlimit="10" d="M 57.34375 346.210938 L 143.789062 224.222656 L 230.230469 268.066406 L 316.671875 246.621094 L 403.113281 289.027344 L 489.558594 315.980469 L 576 424.277344 L 662.441406 315.980469 L 748.886719 289.027344 L 835.328125 246.621094 L 921.769531 268.066406 L 1008.210938 224.222656 L 1094.65625 346.210938 "/>
<path fill="none" stroke-width="2.063982" stroke-linecap="butt" stroke-linejoin="round" stroke="rgb(0%, 0%, 0%)" stroke-opacity="1" stroke-miterlimit="10" d="M 57.34375 346.210938 L 143.789062 403.339844 L 230.230469 337.703125 L 316.671875 354.847656 L 403.113281 360.117188 L 489.558594 335.78125 L 576 335.890625 L 662.441406 335.78125 L 748.886719 360.117188 L 835.328125 354.847656 L 921.769531 337.703125 L 1008.210938 403.339844 L 1094.65625 346.210938 "/>
<path fill="none" stroke-width="1.888701" stroke-linecap="butt" stroke-linejoin="round" stroke="rgb(0%, 0%, 0%)" stroke-opacity="1" stroke-miterlimit="10" d="M 57.34375 346.210938 L 143.789062 324.164062 L 230.230469 393.210938 L 316.671875 360.132812 L 403.113281 367.0625 L 489.558594 379.277344 L 576 506.667969 L 662.441406 379.277344 L 748.886719 367.0625 L 835.328125 360.132812 L 921.769531 393.210938 L 1008.210938 324.164062 L 1094.65625 346.210938 "/>
<path fill="none" stroke-width="1.401923" stroke-linecap="butt" stroke-linejoin="round" stroke="rgb(0%, 0%, 0%)" stroke-opacity="1" stroke-miterlimit="10" d="M 57.34375 346.210938 L 143.789062 362.929688 L 230.230469 380.703125 L 316.671875 355.464844 L 403.113281 406.230469 L 489.558594 484.886719 L 576 444.734375 L 662.441406 484.886719 L 748.886719 406.230469 L 835.328125 355.464844 L 921.769531 380.703125 L 1008.210938 362.929688 L 1094.65625 346.210938 "/>
<path fill="none" stroke-width="2.066764" stroke-linecap="butt" stroke-linejoin="round" stroke="rgb(0%, 0%, 0%)" stroke-opacity="1" stroke-miterlimit="10" d="M 57.34375 346.210938 L 143.789062 261.835938 L 230.230469 292.683594 L 316.671875 290.3125 L 403.113281 306.328125 L 489.558594 306.546875 L 576 343.511719 L 662.441406 306.546875 L 748.886719 306.328125 L 835.328125 290.3125 L 921.769531 292.683594 L 1008.210938 261.835938 L 1094.65625 346.210938 "/>
<path fill="none" stroke-width="2.223678" stroke-linecap="butt" stroke-linejoin="round" stroke="rgb(0%, 0%, 0%)" stroke-opacity="1" stroke-miterlimit="10" d="M 57.34375 346.210938 L 143.789062 358.746094 L 230.230469 360.171875 L 316.671875 274.953125 L 403.113281 312.898438 L 489.558594 277.863281 L 576 205.589844 L 662.441406 277.863281 L 748.886719 312.898438 L 835.328125 274.953125 L 921.769531 360.171875 L 1008.210938 358.746094 L 1094.65625 346.210938 "/>
<path fill="none" stroke-width="2.31265" stroke-linecap="butt" stroke-linejoin="round" stroke="rgb(0%, 0%, 0%)" stroke-opacity="1" stroke-miterlimit="10" d="M 57.34375 346.210938 L 143.789062 348.167969 L 230.230469 389.570312 L 316.671875 409.289062 L 403.113281 417.863281 L 489.558594 396.804688 L 576 233.738281 L 662.441406 396.804688 L 748.886719 417.863281 L 835.328125 409.289062 L 921.769531 389.570312 L 1008.210938 348.167969 L 1094.65625 346.210938 "/>
<path fill="none" stroke-width="2.565344" stroke-linecap="butt" stroke-linejoin="round" stroke="rgb(0%, 0%, 0%)" stroke-opacity="1" stroke-miterlimit="10" d="M 57.34375 346.210938 L 143.789062 311.421875 L 230.230469 269.058594 L 316.671875 267.894531 L 403.113281 399.324219 L 489.558594 373 L 576 324.207031 L 662.441406 373 L 748.886719 399.324219 L 835.328125 267.894531 L 921.769531 269.058594 L 1008.210938 311.421875 L 1094.65625 346.210938 "/>
<path fill="none" stroke-width="2.542286" stroke-linecap="butt" stroke-linejoin="round" stroke="rgb(0%, 0%, 0%)" stroke-opacity="1" stroke-miterlimit="10" d="M 57.34375 346.210938 L 143.789062 389.082031 L 230.230469 370.488281 L 316.671875 308.597656 L 403.113281 241.183594 L 489.558594 211.859375 L 576 212.003906 L 662.441406 211.859375 L 748.886719 241.183594 L 835.328125 308.597656 L 921.769531 370.488281 L 1008.210938 389.082031 L 1094.65625 346.210938 "/>
<path fill="none" stroke-width="1.832692" stroke-linecap="butt" stroke-linejoin="round" stroke="rgb(0%, 0%, 0%)" stroke-opacity="1" stroke-miterlimit="10" d="M 57.34375 346.210938 L 143.789062 397.21875 L 230.230469 414.820312 L 316.671875 318.386719 L 403.113281 291.363281 L 489.558594 284.664062 L 576 336.117188 L 662.441406 284.664062 L 748.886719 291.363281 L 835.328125 318.386719 L 921.769531 414.820312 L 1008.210938 397.21875 L 1094.65625 346.210938 "/>
</svg>
